<svg id="Layer_1" data-name="Layer 1" xmlns="http://www.w3.org/2000/svg" viewBox="0 0 141.73 141.73"><defs><style>.cls-1{fill:none;stroke:#fff;stroke-miterlimit:10;stroke-width:2px;}</style></defs><title>sicfahn_social_white</title><circle class="cls-1" cx="70.87" cy="72.47" r="8.55"/><path class="cls-1" d="M70.87,10.2A62.14,62.14,0,1,0,133,72.34,62.14,62.14,0,0,0,70.87,10.2ZM96.27,83.09A14.67,14.67,0,0,1,81.61,97.76H60.13A14.67,14.67,0,0,1,45.46,83.09V61.6A14.67,14.67,0,0,1,60.13,46.92H81.61A14.67,14.67,0,0,1,96.27,61.6Z"/><path class="cls-1" d="M81.86,51.73h-22a9.74,9.74,0,0,0-9.74,9.74v22a9.74,9.74,0,0,0,9.74,9.74h22a9.74,9.74,0,0,0,9.74-9.74v-22A9.74,9.74,0,0,0,81.86,51.73Zm-11,33.92A13.19,13.19,0,1,1,84.05,72.47,13.19,13.19,0,0,1,70.87,85.66ZM84.49,61.85a3.07,3.07,0,1,1,3.07-3.07A3.07,3.07,0,0,1,84.49,61.85Z"/></svg>