<svg id="Layer_1" data-name="Layer 1" xmlns="http://www.w3.org/2000/svg" viewBox="0 0 141.73 141.73"><title>sicfahn_social</title><path d="M70.87,8.72A62.14,62.14,0,1,0,133,70.87,62.14,62.14,0,0,0,70.87,8.72ZM74.73,82c-3.1,0-6-1.68-7-3.58,0,0-1.67,6.62-2,7.9-1.24,4.51-4.9,9-5.19,9.4a.38.38,0,0,1-.68-.16c-.08-.58-1-6.27.09-10.92L63.6,69a11.06,11.06,0,0,1-.92-4.55c0-4.26,2.47-7.44,5.54-7.44,2.61,0,3.87,2,3.87,4.31,0,2.63-1.67,6.55-2.54,10.19A4.45,4.45,0,0,0,74.1,77c5.44,0,9.11-7,9.11-15.28,0-6.3-4.24-11-12-11-8.71,0-14.14,6.5-14.14,13.76A8.29,8.29,0,0,0,59,70.15a1.39,1.39,0,0,1,.41,1.6c-.14.53-.45,1.8-.59,2.31a1,1,0,0,1-1.44.72c-4-1.64-5.88-6-5.88-11,0-8.16,6.88-17.95,20.53-17.95,11,0,18.19,7.94,18.19,16.46C90.23,73.59,84,82,74.73,82Z"/></svg>