<svg id="Layer_1" data-name="Layer 1" xmlns="http://www.w3.org/2000/svg" viewBox="0 0 141.73 141.73"><defs><style>.cls-1{fill:#fff;fill-rule:evenodd;}</style></defs><title>sicfahn_social_white</title><path class="cls-1" d="M81.61,96.28H60.13A14.67,14.67,0,0,1,45.46,81.61V60.12A14.67,14.67,0,0,1,60.13,45.45H81.61A14.67,14.67,0,0,1,96.27,60.12V81.61A14.67,14.67,0,0,1,81.61,96.28ZM91.6,60a9.74,9.74,0,0,0-9.74-9.74h-22A9.74,9.74,0,0,0,50.14,60V82a9.74,9.74,0,0,0,9.74,9.74h22A9.74,9.74,0,0,0,91.6,82Zm-7.1.38a3.07,3.07,0,1,1,3.07-3.07A3.07,3.07,0,0,1,84.49,60.38ZM70.87,84.18A13.19,13.19,0,1,1,84.05,71,13.19,13.19,0,0,1,70.87,84.18Zm0-21.74A8.55,8.55,0,1,0,79.42,71,8.55,8.55,0,0,0,70.87,62.45Z"/></svg>