<svg id="Layer_1" data-name="Layer 1" xmlns="http://www.w3.org/2000/svg" viewBox="0 0 141.73 141.73"><defs><style>.cls-1{fill:none;stroke:#231f20;stroke-miterlimit:10;stroke-width:2px;}</style></defs><title>sicfahn_social</title><path class="cls-1" d="M72,45.86c-13.65,0-20.53,9.79-20.53,17.95,0,4.94,1.87,9.34,5.88,11a1,1,0,0,0,1.44-.72c.13-.5.45-1.78.59-2.31a1.39,1.39,0,0,0-.41-1.6,8.29,8.29,0,0,1-1.9-5.63c0-7.26,5.43-13.76,14.14-13.76,7.72,0,12,4.71,12,11C83.2,70.05,79.54,77,74.1,77a4.45,4.45,0,0,1-4.53-5.53c.86-3.64,2.54-7.57,2.54-10.19C72.1,59,70.83,57,68.22,57c-3.07,0-5.54,3.18-5.54,7.44A11.06,11.06,0,0,0,63.6,69L59.9,84.64c-1.1,4.65-.17,10.34-.09,10.92a.38.38,0,0,0,.68.16c.28-.37,3.94-4.89,5.19-9.4.35-1.28,2-7.9,2-7.9,1,1.9,3.92,3.58,7,3.58,9.24,0,15.5-8.42,15.5-19.69C90.23,53.79,83,45.86,72,45.86Z"/></svg>